<?xml version="1.0" standalone="yes"?>

<svg version="1.1" viewBox="0.0 0.0 668.5721784776903 418.92913385826773" fill="none" stroke="none" stroke-linecap="square" stroke-miterlimit="10" xmlns="http://www.w3.org/2000/svg" xmlns:xlink="http://www.w3.org/1999/xlink"><clipPath id="p.0"><path d="m0 0l668.5722 0l0 418.92914l-668.5722 0l0 -418.92914z" clip-rule="nonzero"></path></clipPath><g clip-path="url(#p.0)"><path fill="#000000" fill-opacity="0.0" d="m0 0l668.5722 0l0 418.92914l-668.5722 0z" fill-rule="evenodd"></path><path fill="#000000" fill-opacity="0.0" d="m143.14174 293.2152l139.28609 -228.21521l161.78738 174.64305l106.07086 -208.92914" fill-rule="evenodd"></path><path stroke="#ff9900" stroke-width="4.0" stroke-linejoin="round" stroke-linecap="butt" d="m143.14174 293.2152l139.28609 -228.21521l161.78738 174.64305l106.07086 -208.92914" fill-rule="evenodd"></path><path fill="#000000" fill-opacity="0.0" d="m143.14174 293.2152c23.035858 -37.857376 88.572174 -218.21564 138.21523 -227.14435c49.643036 -8.9286995 114.643036 179.82196 159.64304 173.57217c45.0 -6.2497864 91.96411 -175.8924 110.35693 -211.07088" fill-rule="evenodd"></path><path stroke="#000000" stroke-width="4.0" stroke-linejoin="round" stroke-linecap="butt" stroke-dasharray="32.0,12.0" d="m143.14174 293.2152c23.035858 -37.857376 88.572174 -218.21564 138.21523 -227.14435c49.643036 -8.9286995 114.643036 179.82196 159.64304 173.57217c45.0 -6.2497864 91.96411 -175.8924 110.35693 -211.07088" fill-rule="evenodd"></path><path fill="#000000" fill-opacity="0.0" d="m58.501312 12.501312l0 390.01575" fill-rule="evenodd"></path><path stroke="#000000" stroke-width="1.0" stroke-linejoin="round" stroke-linecap="butt" d="m58.501312 12.501312l0 390.01575" fill-rule="evenodd"></path><path fill="#000000" fill-opacity="0.0" d="m6.0 352.14172l634.2992 0" fill-rule="evenodd"></path><path stroke="#000000" stroke-width="1.0" stroke-linejoin="round" stroke-linecap="butt" d="m6.0 352.14172l634.2992 0" fill-rule="evenodd"></path></g></svg>

